# xmcd
#
# Track frame offsets:
#	150
#	11195
#	24496
#	41630
#	56592
#	69051
#	84379
#	98450
#	116431
#	129479
#	141282
#	155293
#	167928
#	186902
#	197466
#
# Disc length: 2841 seconds
#
# Revision: 0
# Processed by: cddbd v1.5.2PL0 Copyright (c) Steve Scherf et al.
# Submitted via: EasyCDDAExtractor 15.2.0.1
#
DISCID=bd0b170f
DTITLE=Tommy Oliver - The Very Best Of Tommy Oliver
DYEAR=2011
DGENRE=Country
TTITLE0=Just An Everlovin' Woman
TTITLE1=Dink Aan My, Ek Dink Aan Jou
TTITLE2=Baby Blue
TTITLE3=I Wanna Live
TTITLE4=You're My Best Friend
TTITLE5=Why Me
TTITLE6=Die Hart Van My Moeder
TTITLE7=She's A Woman
TTITLE8=Toy Train
TTITLE9=Heaven Is My Woman's Love
TTITLE10=Honderd Jaar
TTITLE11=Can't Imagine
TTITLE12=Cry To Me
TTITLE13=Across The Bridge
TTITLE14=Say So Long Don't Say Goodbye (Ft. Caroline Du Preez)
EXTD=
EXTT0=
EXTT1=
EXTT2=
EXTT3=
EXTT4=
EXTT5=
EXTT6=
EXTT7=
EXTT8=
EXTT9=
EXTT10=
EXTT11=
EXTT12=
EXTT13=
EXTT14=
PLAYORDER=
